<?xml version="1.0" standalone="no"?>
<!DOCTYPE svg PUBLIC "-//W3C//DTD SVG 20010904//EN"
 "http://www.w3.org/TR/2001/REC-SVG-20010904/DTD/svg10.dtd">
<svg version="1.0" xmlns="http://www.w3.org/2000/svg"
 width="1024.000000pt" height="1024.000000pt" viewBox="0 0 1024.000000 1024.000000"
 preserveAspectRatio="xMidYMid meet">

<g transform="translate(0.000000,1024.000000) scale(0.100000,-0.100000)"
fill="#000000" stroke="none">
<path d="M5075 8215 c-25 -24 -25 -24 -25 -234 l0 -210 26 -20 c35 -27 65 -27
92 2 21 22 22 31 22 234 l0 212 -26 20 c-35 27 -59 26 -89 -4z"/>
<path d="M4069 7852 c-15 -13 -22 -30 -22 -51 0 -28 18 -51 144 -177 125 -125
148 -144 176 -144 35 0 73 38 73 73 0 14 -52 74 -148 169 -158 158 -175 168
-223 130z"/>
<path d="M5948 7722 c-96 -95 -148 -155 -148 -169 0 -35 38 -73 73 -73 27 0
51 20 174 143 132 132 143 146 143 179 0 27 -6 41 -22 52 -48 34 -64 24 -220
-132z"/>
<path d="M4921 7415 c-423 -96 -731 -404 -806 -810 -23 -121 -16 -336 14 -450
29 -113 106 -261 205 -395 47 -63 101 -142 121 -175 49 -82 86 -203 92 -302
l6 -81 -69 64 c-363 342 -858 534 -1374 534 -138 0 -139 0 -159 -26 l-21 -27
0 -1351 c0 -1152 2 -1355 14 -1372 14 -18 29 -19 293 -20 316 0 452 -16 713
-80 314 -78 739 -253 1010 -416 95 -57 110 -63 160 -63 49 0 65 6 154 59 195
116 541 271 794 355 324 108 685 159 1024 147 170 -7 178 -6 197 13 l21 21 0
1355 0 1356 -26 26 -26 26 -196 -6 c-358 -10 -635 -86 -930 -254 -149 -86
-249 -160 -376 -282 l-68 -66 5 85 c11 163 63 281 212 480 93 125 184 296 209
395 61 241 35 492 -74 710 -133 268 -361 454 -660 537 -99 27 -363 35 -459 13z
m389 -150 c367 -86 621 -359 676 -728 12 -80 13 -119 4 -195 -23 -205 -70
-315 -221 -513 -159 -209 -213 -336 -228 -534 -5 -60 -6 -125 -4 -142 l5 -33
-174 0 -175 0 -2 380 -3 380 146 152 c157 162 169 185 126 228 -43 43 -69 30
-206 -102 -70 -68 -130 -123 -134 -123 -5 0 -67 55 -138 123 -107 100 -136
122 -160 122 -40 0 -76 -43 -67 -80 3 -14 69 -88 151 -170 l144 -145 0 -383 0
-382 -172 0 -173 0 -1 113 c-3 220 -58 364 -223 584 -117 156 -153 217 -186
312 -36 107 -48 206 -42 339 11 232 93 410 265 574 121 116 274 196 433 227
75 15 288 12 359 -4z m-1931 -1631 c440 -64 834 -271 1108 -580 l62 -70 10
-110 c10 -120 26 -174 72 -246 79 -123 245 -218 381 -218 l38 0 0 -842 0 -842
-107 106 c-137 135 -238 219 -383 317 -374 253 -765 398 -1166 432 -76 6 -178
9 -226 5 l-88 -6 0 1035 0 1035 96 0 c53 0 144 -7 203 -16z m3781 -1016 l0
-1033 -173 -1 c-192 -1 -319 -17 -497 -63 -430 -111 -833 -342 -1176 -673 -61
-60 -114 -108 -118 -108 -3 0 -4 291 -2 648 2 356 5 731 5 835 l1 187 38 0
c93 0 219 57 303 137 97 92 148 221 149 372 l0 64 148 146 c90 90 182 170 237
208 294 199 636 309 968 312 l117 1 0 -1032z m-1626 290 c-5 -128 -26 -179
-101 -249 -78 -73 -119 -84 -318 -84 -166 0 -171 1 -227 28 -74 36 -143 112
-163 180 -8 28 -15 81 -15 119 l0 68 413 0 413 0 -2 -62z m-1983 -1492 c124
-23 320 -79 429 -121 276 -108 568 -292 795 -500 l50 -46 -70 35 c-207 101
-506 212 -727 270 -264 69 -484 98 -755 100 l-193 1 0 136 c0 75 3 139 8 143
12 13 371 -1 463 -18z m3609 -118 l0 -143 -188 -1 c-264 -2 -451 -25 -712 -89
-235 -58 -509 -158 -750 -274 -46 -22 -85 -39 -87 -38 -4 5 180 159 273 229
294 218 643 370 994 432 113 20 139 22 318 24 l152 2 0 -142z"/>
</g>
</svg>
